# Blender 5.2.0 LTS
# www.blender.org
mtllib drone.mtl
o Cube
v -0.000000 0.050000 0.500000
v -0.000000 -0.030000 -0.500000
v 0.300000 -0.017000 0.150000
v 0.300000 -0.017000 0.050000
v -0.300000 -0.017000 0.150000
v -0.300000 -0.017000 0.050000
v 0.000000 -0.037000 -0.050000
v 0.000000 -0.037000 -0.150000
v 0.150000 0.018000 0.587000
v 0.150000 0.018000 0.517000
v -0.150000 0.018000 0.587000
v -0.150000 0.018000 0.517000
v 0.000000 0.043000 0.480000
v 0.000000 -0.028000 -0.050000
v 0.300000 -0.008000 0.150000
v -0.300000 -0.008000 0.150000
v 0.150000 0.023000 0.587000
v 0.000000 0.048000 0.480000
v -0.150000 0.023000 0.587000
v -0.000000 0.050000 0.165548
v 0.050000 -0.050000 0.165548
v -0.050000 -0.050000 0.165548
v -0.002500 0.047744 0.479923
v 0.000000 0.047744 0.416923
v -0.002500 0.198000 0.508000
v 0.000000 0.198000 0.465000
v 0.002500 0.198000 0.508000
v 0.002500 0.047744 0.479923
vn -0.8931 0.4466 -0.0537
vn 0.8944 0.4472 -0.0000
vn -0.0000 -0.9995 -0.0300
vn -0.0665 -0.9978 -0.0000
vn 0.0665 -0.9978 -0.0000
vn 0.1558 -0.9872 -0.0352
vn -0.1558 -0.9872 -0.0352
vn 0.0066 0.9960 -0.0896
vn -0.0066 0.9960 -0.0896
vn 0.5547 -0.0000 0.8321
vn -0.5547 -0.0000 0.8321
vn -1.0000 -0.0000 -0.0000
vn 1.0000 -0.0000 -0.0000
vn -0.2051 0.9780 -0.0386
vn 0.2051 0.9780 -0.0386
vn 0.5807 -0.0000 0.8141
vn -0.5807 -0.0000 0.8141
vn -0.0000 -0.9581 0.2865
vn -0.8944 0.4472 -0.0000
vn 0.8931 0.4466 -0.0537
vn -0.9988 0.0119 -0.0471
vn 0.9988 0.0119 -0.0471
vn -0.0000 -0.1837 0.9830
vn -0.0000 1.0000 -0.0000
vt 0.375000 0.396113
vt 0.625000 0.396113
vt 0.625000 0.602331
vt 0.375000 0.853887
vt 0.625000 0.853887
vt 0.625000 1.000000
vt 0.271113 0.500000
vt 0.625000 0.750000
vt 0.271113 0.750000
vt 0.000000 0.500000
vt 0.000000 1.000000
vt 1.000000 1.000000
vt 1.000000 0.500000
vt 0.000000 0.000000
vt 1.000000 0.000000
vt 1.000000 0.000000
vt 0.123938 0.500520
vt 0.625000 0.250000
vt 0.689232 0.395847
vt 0.410198 0.395865
vt 0.375000 0.853887
vt 0.000000 0.198718
vt 1.000000 0.198718
s 0
f 22/1/1 20/2/1 2/3/1
f 21/4/2 20/5/2 1/6/2
f 22/7/3 2/8/3 21/9/3
f 7/10/4 5/11/4 6/12/4 8/13/4
f 3/14/5 7/10/5 8/13/5 4/15/5
f 13/10/6 11/11/6 12/12/6 24/13/6
f 9/14/7 13/10/7 24/13/7 10/15/7
f 14/10/8 8/13/8 6/12/8 16/11/8
f 15/14/9 4/15/9 8/13/9 14/10/9
f 5/11/10 7/10/10 14/10/10 16/11/10
f 7/10/11 3/14/11 15/14/11 14/10/11
f 6/12/12 5/11/12 16/11/12
f 3/14/13 4/15/13 15/14/13
f 18/10/14 24/13/14 12/12/14 19/11/14
f 17/14/15 10/16/15 24/13/15 18/10/15
f 11/11/16 13/10/16 18/10/16 19/11/16
f 13/10/17 9/14/17 17/14/17 18/10/17
f 12/12/12 11/11/12 19/11/12
f 9/14/13 10/16/13 17/14/13
f 1/17/18 22/7/18 21/9/18
f 1/18/19 20/19/19 22/20/19
f 2/8/20 20/5/20 21/21/20
f 23/22/21 25/11/21 26/12/21 24/23/21
f 28/22/22 24/23/22 26/12/22 27/11/22
f 25/11/23 23/22/23 28/22/23 27/11/23
f 26/12/24 25/11/24 27/11/24
