# Blender 5.2.0 LTS
# www.blender.org
mtllib large_drone.mtl
o Cube
v -0.000000 -0.480450 3.900000
v -0.000000 -0.480450 -4.100000
v 1.050000 -0.549450 3.460999
v 1.050000 -0.549450 3.161000
v -1.050000 -0.549450 3.460999
v -1.050000 -0.549450 3.161001
v -0.000000 -0.459450 3.690615
v 1.050000 -0.499450 3.460999
v -1.050000 -0.499450 3.460999
v -0.000000 0.199550 0.650000
v 0.500000 -0.480450 0.650000
v -0.500000 -0.480450 0.650000
v -0.025000 -0.420450 3.690615
v -0.000000 -0.415450 2.790000
v -0.015000 0.589550 3.590000
v -0.000000 0.589550 3.140000
v 0.015000 0.589550 3.590000
v 0.025000 -0.420450 3.690615
v -0.000000 -0.415450 3.690000
vn -0.8028 0.5903 -0.0845
vn 0.7995 0.5879 0.1230
vn -0.0000 -1.0000 -0.0000
vn 0.1036 -0.9940 -0.0364
vn -0.1036 -0.9940 -0.0364
vn 0.1059 0.9935 -0.0414
vn 0.2139 0.0064 0.9768
vn -0.1059 0.9935 -0.0414
vn -0.2139 0.0064 0.9768
vn -1.0000 -0.0000 -0.0000
vn 1.0000 -0.0000 -0.0000
vn -0.7995 0.5879 0.1230
vn 0.8028 0.5903 -0.0845
vn -0.9995 0.0086 -0.0296
vn 0.9995 0.0086 -0.0296
vn -0.0000 0.0991 0.9951
vn -0.0000 1.0000 -0.0000
vt 0.375000 0.396113
vt 0.625000 0.396113
vt 0.625000 0.602331
vt 0.375000 0.853887
vt 0.625000 0.853887
vt 0.625000 1.000000
vt 0.271113 0.500000
vt 0.625000 0.750000
vt 0.271113 0.750000
vt 0.000000 0.500000
vt 0.000000 1.000000
vt 1.000000 1.000000
vt 1.466770 0.500000
vt 0.000000 0.000000
vt 1.000000 0.000000
vt 1.000000 0.000000
vt 0.123938 0.500520
vt 0.625000 0.250000
vt 0.689232 0.395847
vt 0.410198 0.395865
vt 0.375000 0.853887
vt 0.000000 0.198718
vt 1.547893 0.197712
s 0
f 12/1/1 10/2/1 2/3/1
f 11/4/2 10/5/2 1/6/2
f 12/7/3 2/8/3 11/9/3
f 7/10/4 5/11/4 6/12/4 14/13/4
f 3/14/5 7/10/5 14/13/5 4/15/5
f 8/14/6 4/16/6 14/13/6 19/14/6
f 7/10/7 3/14/7 8/14/7 19/14/7
f 19/14/8 14/13/8 6/12/8 9/11/8
f 7/10/9 19/14/9 9/11/9 5/11/9
f 6/12/10 5/11/10 9/11/10
f 3/14/11 4/16/11 8/14/11
f 1/17/3 12/7/3 11/9/3
f 1/18/12 10/19/12 12/20/12
f 2/8/13 10/5/13 11/21/13
f 13/22/14 15/11/14 16/12/14 14/23/14
f 18/22/15 14/23/15 16/12/15 17/11/15
f 15/11/16 13/22/16 18/22/16 17/11/16
f 16/12/17 15/11/17 17/11/17
o Cube.001
v 3.000000 -0.270000 2.000000
v 3.000000 -0.270000 1.000000
v 0.000000 -0.460000 2.600000
v 0.000000 -0.460000 -1.500000
v 0.000000 -0.370000 2.600000
v 3.000000 -0.180000 2.000000
v 3.000000 -0.186100 1.190353
v 0.000000 -0.444861 -1.294971
v -3.000000 -0.270000 2.000000
v -3.000000 -0.270000 1.000000
v -3.000000 -0.180000 2.000000
v -3.000000 -0.186100 1.190353
vn 0.0632 -0.9980 -0.0000
vn 0.1283 0.9620 -0.2410
vn 0.1961 -0.0000 0.9806
vn 1.0000 -0.0000 -0.0000
vn -0.0692 0.9975 -0.0172
vn -0.0632 -0.9980 -0.0000
vn -0.1283 0.9620 -0.2410
vn -0.1961 -0.0000 0.9806
vn -1.0000 -0.0000 -0.0000
vn 0.0692 0.9975 -0.0172
vt 0.000000 0.000000
vt 0.000000 0.500000
vt 1.000000 0.500000
vt 1.000000 0.000000
vt 0.802992 0.000000
vt 0.802992 0.500000
s 0
f 20/24/18 22/25/18 23/26/18 21/27/18
f 26/28/19 21/27/19 23/26/19 27/29/19
f 22/25/20 20/24/20 25/24/20 24/25/20
f 20/24/21 21/27/21 26/28/21 25/24/21
f 25/24/22 26/28/22 27/29/22 24/25/22
f 28/24/23 29/27/23 23/26/23 22/25/23
f 31/28/24 27/29/24 23/26/24 29/27/24
f 22/25/25 24/25/25 30/24/25 28/24/25
f 28/24/26 30/24/26 31/28/26 29/27/26
f 30/24/27 24/25/27 27/29/27 31/28/27
